/* XPM */
static char * argeo_square_48_xpm[] = {
"48 48 484 2",
"  	c #FFFFFF",
". 	c #FFFEFE",
"+ 	c #FFF8F0",
"@ 	c #FFEFDD",
"# 	c #FEEFDC",
"$ 	c #FEF1E1",
"% 	c #FEF8F1",
"& 	c #FEFEFD",
"* 	c #FFFEFD",
"= 	c #FFF5EA",
"- 	c #FFE5C6",
"; 	c #FECC90",
"> 	c #FFB761",
", 	c #FFAE4E",
"' 	c #FFA73E",
") 	c #FEA63E",
"! 	c #FEA842",
"~ 	c #FEAE4F",
"{ 	c #FDB967",
"] 	c #FBCD96",
"^ 	c #FBE7CF",
"/ 	c #FCF6EF",
"( 	c #FEFDFD",
"_ 	c #FFFDFB",
": 	c #FFC988",
"< 	c #FFAC4A",
"[ 	c #FF9B24",
"} 	c #FF9A22",
"| 	c #FE9D2A",
"1 	c #FCB057",
"2 	c #F8D2A5",
"3 	c #F9F3EC",
"4 	c #FCFCFC",
"5 	c #FFECD6",
"6 	c #FFBC6C",
"7 	c #FF9D29",
"8 	c #FAA744",
"9 	c #F3D1A8",
"0 	c #F6F4F2",
"a 	c #FDFDFD",
"b 	c #F9F9F9",
"c 	c #FEFEFE",
"d 	c #FFF5E9",
"e 	c #FEC888",
"f 	c #FF9F2D",
"g 	c #FF9A23",
"h 	c #FE9D29",
"i 	c #F5B568",
"j 	c #EFE6DD",
"k 	c #E8E8E8",
"l 	c #FBFBFB",
"m 	c #FEE5C7",
"n 	c #FFB154",
"o 	c #F6AA51",
"p 	c #EADAC7",
"q 	c #F5F5F5",
"r 	c #D9D9D9",
"s 	c #F7F7F7",
"t 	c #FFDBB0",
"u 	c #FFA438",
"v 	c #F4A64A",
"w 	c #E4D5C3",
"x 	c #F4F4F4",
"y 	c #DEDEDE",
"z 	c #F8F8F8",
"A 	c #FFDAB0",
"B 	c #EFA54D",
"C 	c #DDD5CC",
"D 	c #F2F2F2",
"E 	c #FEDEB7",
"F 	c #FE9A23",
"G 	c #E6A75C",
"H 	c #DCDCDC",
"I 	c #FEE9D0",
"J 	c #F69623",
"K 	c #DB8928",
"L 	c #BF7D2F",
"M 	c #A67235",
"N 	c #AB7536",
"O 	c #C38131",
"P 	c #E18D2A",
"Q 	c #FD9922",
"R 	c #FC9A26",
"S 	c #D3B38D",
"T 	c #E4E4E3",
"U 	c #FAFAFA",
"V 	c #FFF9F1",
"W 	c #FFB864",
"X 	c #F39424",
"Y 	c #B97A2F",
"Z 	c #7A5F3E",
"` 	c #5F564C",
" .	c #595959",
"..	c #646464",
"+.	c #6B6B6B",
"@.	c #6C6C6B",
"#.	c #786E61",
"$.	c #A77B47",
"%.	c #E9922B",
"&.	c #FE9A22",
"*.	c #EF9C39",
"=.	c #CCC4BA",
"-.	c #EDEDED",
";.	c #FED6A7",
">.	c #FF9D28",
",.	c #D88828",
"'.	c #715A3F",
").	c #535251",
"!.	c #7B7B7B",
"~.	c #929292",
"{.	c #A4A4A4",
"].	c #AEAEAE",
"^.	c #AFAFAF",
"/.	c #A6A6A6",
"(.	c #90816E",
"_.	c #D88E37",
":.	c #CDA474",
"<.	c #D6D6D6",
"[.	c #F6F6F6",
"}.	c #FEF9F2",
"|.	c #FFA843",
"1.	c #FA9823",
"2.	c #A97232",
"3.	c #534F4A",
"4.	c #626262",
"5.	c #838383",
"6.	c #A5A5A5",
"7.	c #C3C3C3",
"8.	c #D8D8D8",
"9.	c #E5E5E5",
"0.	c #EBEBEB",
"a.	c #E6E6E6",
"b.	c #D7D7D7",
"c.	c #BCBCBC",
"d.	c #A19A91",
"e.	c #D79240",
"f.	c #E8983A",
"g.	c #BEB6AB",
"h.	c #E7E7E7",
"i.	c #FF9C26",
"j.	c #A16F34",
"k.	c #585450",
"l.	c #6E6E6E",
"m.	c #989898",
"n.	c #C2C2C2",
"o.	c #DFDFDF",
"p.	c #F0F0F0",
"q.	c #D0D0D0",
"r.	c #B5A89A",
"s.	c #F2982D",
"t.	c #FC9924",
"u.	c #B99E7F",
"v.	c #D3D3D3",
"w.	c #FEFCF9",
"x.	c #FEB259",
"y.	c #C47F2D",
"z.	c #5B554F",
"A.	c #727272",
"B.	c #A2A2A2",
"C.	c #D1D1D1",
"D.	c #FCFBFA",
"E.	c #F3E3CF",
"F.	c #EBB06A",
"G.	c #FA9A27",
"H.	c #CE9450",
"I.	c #BABABA",
"J.	c #EEEEEE",
"K.	c #FEF1E2",
"L.	c #FF9C27",
"M.	c #FC9823",
"N.	c #6A5945",
"O.	c #6C6C6C",
"P.	c #A1A1A1",
"Q.	c #D4D4D4",
"R.	c #F3F3F3",
"S.	c #FFF9F2",
"T.	c #FECF97",
"U.	c #FFA63D",
"V.	c #E49436",
"W.	c #A8A39D",
"X.	c #E1E1E1",
"Y.	c #FDD19D",
"Z.	c #CC832C",
"`.	c #5C5C5C",
" +	c #939393",
".+	c #CECECE",
"++	c #FFFDFA",
"@+	c #FFDEB6",
"#+	c #FFA943",
"$+	c #C9812C",
"%+	c #846C4F",
"&+	c #FEFDFB",
"*+	c #FDBD70",
"=+	c #FE9922",
"-+	c #9C703B",
";+	c #757575",
">+	c #B6B6B6",
",+	c #E9E9E9",
"'+	c #FFE4C4",
")+	c #FFB55F",
"!+	c #83623A",
"~+	c #57534E",
"{+	c #6D6D6D",
"]+	c #A0A0A0",
"^+	c #DADADA",
"/+	c #FEF6ED",
"(+	c #FDAE51",
"_+	c #F99723",
":+	c #8F6E46",
"<+	c #8B8B8B",
"[+	c #FFF0DE",
"}+	c #FFC076",
"|+	c #FFA233",
"1+	c #E68E26",
"2+	c #9F6F35",
"3+	c #5E5448",
"4+	c #5E5E5E",
"5+	c #C9C9C9",
"6+	c #ECECEC",
"7+	c #FDF0E2",
"8+	c #FDA43B",
"9+	c #F99724",
"0+	c #93734D",
"a+	c #9C9C9C",
"b+	c #FFF6EB",
"c+	c #FED19B",
"d+	c #FFA73D",
"e+	c #F69624",
"f+	c #B67830",
"g+	c #685743",
"h+	c #585857",
"i+	c #707070",
"j+	c #949494",
"k+	c #B9B9B9",
"l+	c #FBECDA",
"m+	c #FE9E2D",
"n+	c #977751",
"o+	c #E2E2E2",
"p+	c #FFDAAF",
"q+	c #D0842A",
"r+	c #735B3E",
"s+	c #525252",
"t+	c #696969",
"u+	c #8A8A8A",
"v+	c #D2D2D2",
"w+	c #FAE8D3",
"x+	c #FD9923",
"y+	c #A57D4E",
"z+	c #E3E3E3",
"A+	c #FDFBF8",
"B+	c #FFE5C7",
"C+	c #FFB155",
"D+	c #FF9B25",
"E+	c #54514E",
"F+	c #636363",
"G+	c #858585",
"H+	c #A9A9A9",
"I+	c #CBCBCB",
"J+	c #F9E8D3",
"K+	c #C18640",
"L+	c #A3A3A2",
"M+	c #E5D2BC",
"N+	c #FDC077",
"O+	c #FFA030",
"P+	c #E89026",
"Q+	c #9C6D35",
"R+	c #5D5449",
"S+	c #5F5E5E",
"T+	c #7A7A7A",
"U+	c #9D9D9D",
"V+	c #E0E0E0",
"W+	c #F8EAD9",
"X+	c #FCA031",
"Y+	c #E6912D",
"Z+	c #CA985C",
"`+	c #F9A138",
" @	c #F29424",
".@	c #B17630",
"+@	c #6B5943",
"@@	c #585858",
"#@	c #B8B8B8",
"$@	c #EFEFEF",
"%@	c #F7ECDE",
"&@	c #FAA43C",
"*@	c #CB822B",
"=@	c #735B3F",
"-@	c #555452",
";@	c #898989",
">@	c #B0B0B0",
",@	c #EAEAEA",
"'@	c #F7F1E9",
")@	c #F8AC52",
"!@	c #D98928",
"~@	c #84623A",
"{@	c #505050",
"]@	c #656565",
"^@	c #848484",
"/@	c #CCCCCC",
"(@	c #FFFAF5",
"_@	c #F7F7F6",
":@	c #F4B972",
"<@	c #E58E27",
"[@	c #986B36",
"}@	c #5C534A",
"|@	c #5F5F5E",
"1@	c #7C7C7C",
"2@	c #C4C4C4",
"3@	c #FECA8C",
"4@	c #FEB053",
"5@	c #F8E1C5",
"6@	c #F8F7F5",
"7@	c #EDC99E",
"8@	c #F09324",
"9@	c #B47830",
"0@	c #655645",
"a@	c #5B5A59",
"b@	c #737373",
"c@	c #959595",
"d@	c #BBBBBB",
"e@	c #FDA134",
"f@	c #F3C186",
"g@	c #F2E9DE",
"h@	c #E9E1D7",
"i@	c #FC9C2A",
"j@	c #CA822C",
"k@	c #755C3E",
"l@	c #8C8C8C",
"m@	c #FFFCFA",
"n@	c #FEC683",
"o@	c #FF9A24",
"p@	c #F8A94C",
"q@	c #EFD7BA",
"r@	c #F7F5F3",
"s@	c #F0EEEC",
"t@	c #EFAB5A",
"u@	c #DF8B28",
"v@	c #81613B",
"w@	c #828282",
"x@	c #FED9AD",
"y@	c #FD9C27",
"z@	c #F1BE80",
"A@	c #F1E9E1",
"B@	c #E4C5A0",
"C@	c #FD9B27",
"D@	c #C17D2D",
"E@	c #565049",
"F@	c #5F5F5F",
"G@	c #FFDDB6",
"H@	c #ECAE66",
"I@	c #E3E0DC",
"J@	c #F3A243",
"K@	c #E99027",
"L@	c #7C6B56",
"M@	c #FFFCF8",
"N@	c #FFA132",
"O@	c #F99824",
"P@	c #AD9272",
"Q@	c #BFBFBF",
"R@	c #DFBA8E",
"S@	c #FC9B27",
"T@	c #E29335",
"U@	c #B8AC9E",
"V@	c #DDDDDD",
"W@	c #FFF3E4",
"X@	c #FFC47F",
"Y@	c #FF9D2A",
"Z@	c #C38031",
"`@	c #76716B",
" #	c #AAAAAA",
".#	c #DCD7D1",
"+#	c #EDA34A",
"@#	c #F0A142",
"##	c #E1CEB8",
"$#	c #FFD9AC",
"%#	c #FFAA45",
"&#	c #695947",
"*#	c #B5B5B5",
"=#	c #D6BDA1",
"-#	c #F99B2C",
";#	c #FC9D2C",
">#	c #F1BB7C",
",#	c #FBFAFA",
"'#	c #FFF2E2",
")#	c #FFD6A5",
"!#	c #FFAB47",
"~#	c #FF9B23",
"{#	c #80613C",
"]#	c #9A9A9A",
"^#	c #DDDCDA",
"/#	c #DBA96F",
"(#	c #FDA133",
"_#	c #FBB159",
":#	c #FBC586",
"<#	c #FCD09C",
"[#	c #FEC786",
"}#	c #FFB359",
"|#	c #F89723",
"1#	c #996C37",
"2#	c #5A5957",
"3#	c #878787",
"4#	c #D0C8BF",
"5#	c #E99D44",
"6#	c #F59624",
"7#	c #A06F35",
"8#	c #5A5752",
"9#	c #C6B5A1",
"0#	c #F49A2E",
"a#	c #F59524",
"b#	c #8D6639",
"c#	c #565553",
"d#	c #767676",
"e#	c #ACACAC",
"f#	c #DBDBDB",
"g#	c #C3A787",
"h#	c #F6992B",
"i#	c #E28D27",
"j#	c #595858",
"k#	c #ADADAD",
"l#	c #CFCECD",
"m#	c #BFA17D",
"n#	c #F3982D",
"o#	c #F79623",
"p#	c #B6782F",
"q#	c #5E5347",
"r#	c #606060",
"s#	c #C8C7C5",
"t#	c #BA9D7A",
"u#	c #EA9531",
"v#	c #86643B",
"w#	c #5A5550",
"x#	c #6A6A6A",
"y#	c #C0C0C0",
"z#	c #C5C5C5",
"A#	c #A89986",
"B#	c #DB9139",
"C#	c #FB9924",
"D#	c #EF9325",
"E#	c #A67133",
"F#	c #5F5448",
"G#	c #A3A3A3",
"H#	c #CDCDCD",
"I#	c #CACACA",
"J#	c #9D9A97",
"K#	c #AD8658",
"L#	c #E5912D",
"M#	c #F19424",
"N#	c #A87232",
"O#	c #615444",
"P#	c #565656",
"Q#	c #717171",
"R#	c #ACACAB",
"S#	c #8E8881",
"T#	c #A27D52",
"U#	c #D28933",
"V#	c #F39525",
"W#	c #EC9125",
"X#	c #C6802C",
"Y#	c #916838",
"Z#	c #5A524A",
"`#	c #6F6F6F",
" $	c #8D8D8D",
".$	c #B2B2B2",
"+$	c #C7C7C7",
"@$	c #88837D",
"#$	c #827362",
"$$	c #93724B",
"%$	c #AE793C",
"&$	c #C58233",
"*$	c #D2872E",
"=$	c #D1862D",
"-$	c #CF852D",
";$	c #BC7C31",
">$	c #A47236",
",$	c #7F6240",
"'$	c #675A4A",
")$	c #5E5A55",
"!$	c #777777",
"~$	c #909090",
"{$	c #C1C1C1",
"]$	c #A7A7A7",
"^$	c #7E7E7E",
"/$	c #686868",
"($	c #E4E4E4",
"_$	c #ABABAB",
"                                                                                                ",
"                                        . + @ # # $ % &                                         ",
"                                * = - ; > , ' ) ) ! ~ { ] ^ / (                                 ",
"                            _ @ : < [ } } } } } } } } } } | 1 2 3 4                             ",
"                          5 6 7 } } } } } } } } } } } } } } } } 8 9 0 a                         ",
"b c                   d e f g } } } } } } } } } } } } } } } } } } h i j b c                     ",
"k l               . m n [ } } } } } } } } } } } } } } } } } } } } } } o p q a                   ",
"r s             * t u } } } } } } } } } } } } } } } } } } } } } } } } } v w x a                 ",
"y z           * A 7 } } } } } } } } } } } } } } } } } } } } } } } } } } } B C q c               ",
"D 4         . E 7 } } } } } } } } } } } } } } } } } } } } } } } } } } } } F G H s c             ",
"a           I ' } } } } } } } } } } } J K L M N O P Q } } } } } } } } } } } R S T U             ",
"          V W } } } } } } } } } } X Y Z `  ...+.@.#.$.%.&.} } } } } } } } } } *.=.-.a           ",
"          ;.>.} } } } } } } } } ,.'.)...!.~.{.].^./.~.(._.} } } } } } } } } } } :.<.[.          ",
"        }.|.} } } } } } } } 1.2.3.4.5.6.7.8.9.0.0.a.b.c.d.e.} } } } } } } } } } f.g.h.a         ",
"        ;.i.} } } } } } } Q j.k.l.m.n.o.p.b a c c a z 0.q.r.s.} } } } } } } } } t.u.v.s         ",
"      w.x.} } } } } } } } y.z.A.B.C.-.b c             D.E.F.G.} } } } } } } } } } H.I.J.c       ",
"      K.L.} } } } } } } M.N.O.P.Q.R.a               S.T.U.} } } } } } } } } } } } V.W.X.4       ",
"      Y.} } } } } } } } Z.`. +.+R.a             ++@+#+g } } } } } } } } } } } } $+%+~.<.b       ",
"    &+*+} } } } } } } =+-+;+>+,+a           * '+)+L.} } } } } } } } } } } =+K !+~+{+]+^+b       ",
"    /+(+} } } } } } } _+:+<+.+q         * [+}+|+} } } } } } } } } } } } 1+2+3+4+!.]+5+6+4       ",
"    7+8+} } } } } } } 9+0+a+H l     . b+c+d+} } } } } } } } } } } } e+f+g+h+i+j+k+8.J.U         ",
"    l+m+} } } } } } } 9+n+6.o+4   _ p+< } } } } } } } } } } } } =+q+r+s+t+u+^.v+0.z a           ",
"    w+} } } } } } } } x+y+/.z+A+B+C+D+} } } } } } } } } } } } K !+E+F+G+H+I+a.s a               ",
"    J+D+} } } } } } } } K+L+M+N+O+} } } } } } } } } } } &.P+Q+R+S+T+U+7.V+D l c                 ",
"    W+X+} } } } } } } } Y+Z+`+g } } } } } } } } } } }  @.@+@@@A.j+#@8.$@U c                     ",
"    %@&@} } } } } } } } } } } } } } } } } } } } } Q *@=@-@t+;@>@C.,@z c                         ",
"    '@)@} } } } } } } } } } } } } } } } } } } } !@~@{@]@^@H+/@h.[.a         + (@                ",
"    _@:@} } } } } } } } } } } } } } } } } } <@[@}@|@1@P.2@X.R.4           * 3@4@5@6@a           ",
"    U 7@} } } } } } } } } } } } } } } } 8@9@0@a@b@c@d@^+$@U c             $ ! } e@f@g@l c       ",
"    a h@i@} } } } } } } } } } } } } 1.j@k@-@+.l@>@v+0.z c               m@n@} } } o@p@q@r@a     ",
"    c s@t@} } } } } } } } } } } } u@v@E+F+w@H+/@a.[.a                   x@f } } } } } y@z@A@U c ",
"      s B@C@} } } } } } } } } } D@E@F@1@]+2@o+R.4                     G@|+} } } } } } } [ H@z+z ",
"      4 I@J@} } } } } } } } } } K@L@l@#@r $@U c                   M@;.N@} } } } } } } } O@P@Q@0.",
"      c $@R@S@} } } } } } } } } } T@U@V@[.a                   . W@X@Y@} } } } } } } } } Z@`@ #z+",
"        b .#+#} } } } } } } } } } } @###x a                 _ $#%#} } } } } } } } } }  @&#;+*#,@",
"        c -.=#-#} } } } } } } } } } } ;#>#E.,#c         '#)#!#~#} } } } } } } } } } e+{#F+]#Q.[.",
"          b ^#/#} } } } } } } } } } } } [ (#_#:#<#Y.[#}#u i.} } } } } } } } } } } |#1#2#3#n.6+a ",
"          c p.4#5#} } } } } } } } } } } } } } } } } } } } } } } } } } } } } } } 6#7#8#!.*#z+b   ",
"            l a.9#0#} } } } } } } } } } } } } } } } } } } } } } } } } } } } } a#b#c#d#e#y s c   ",
"            c s f#g#h#} } } } } } } } } } } } } } } } } } } } } } } } } } } i#'.j#1@k#H [.c     ",
"              c R.l#m#n#} } } } } } } } } } } } } } } } } } } } } } } } o#p#q#r#3#*#y [.c       ",
"a               4 6+s#t#u#} } } } } } } } } } } } } } } } } } } } } =+K v#w#x# +y#z+s c         ",
"s                 l ,@z#A#B#C#} } } } } } } } } } } } } } } } } =+D#E#F#4+!.G#H#0.b c           ",
",@a                 l 0.I#J#K#L#} } } } } } } } } } } } } } } M#N#O#P#Q#j+I.H D 4               ",
"8.z                   4 p.v.R#S#T#U#V#} } } } } } } } } W#X#Y#Z#a@`# $.$v.0.z c                 ",
"+$D                     a x V+n.]+@$#$$$%$&$*$=$-$;$>$,$'$)$..!$~$]./@a.q 4 c                   ",
"#@6+c                     c b J.f#{$]$~$^$Q#/$F+4.F+/$i+1@l@B.I.q.($R.4 c                       ",
"].h.a                         a b p.o+v.2@>+_$6.G#6._$*#n.C.V+-.[.4 c                           "};
